<?xml version="1.0" encoding="utf-8"?>
<!-- Generator: Adobe Illustrator 27.5.0, SVG Export Plug-In . SVG Version: 6.00 Build 0)  -->
<svg version="1.1" xmlns="http://www.w3.org/2000/svg" xmlns:xlink="http://www.w3.org/1999/xlink" x="0px" y="0px"
	 viewBox="0 0 2200 2200" style="enable-background:new 0 0 2200 2200;" xml:space="preserve">
<g id="background">
	<rect style="fill:#FFFFFF;" width="2200" height="2200"/>
</g>
<g id="objects">
	<g>
		<path style="fill:#9969F7;" d="M1495.456,1281.435v277.009h-86.327v-277.009c0-161.887-131.244-293.131-293.131-293.131
			s-293.131,131.244-293.131,293.131v179.194h-86.327v-179.194c0-209.566,169.892-379.458,379.458-379.458
			S1495.456,1071.869,1495.456,1281.435z"/>
		<path style="fill:#2747E2;" d="M1581.783,1281.435v277.009h-86.327v-277.009c0-209.566-169.892-379.458-379.458-379.458
			s-379.458,169.892-379.458,379.458v179.194h-86.327v-179.194c0-257.245,208.54-465.785,465.785-465.785
			S1581.783,1024.191,1581.783,1281.435z"/>
		<path style="fill:#079ED3;" d="M1668.11,1281.435v277.009h-86.327v-277.009c0-257.245-208.54-465.785-465.785-465.785
			s-465.785,208.54-465.785,465.785v179.194h-86.327v-179.194c0-304.924,247.188-552.112,552.112-552.112
			S1668.11,976.512,1668.11,1281.435z"/>
		<path style="fill:#78BF2C;" d="M1754.448,1281.435h-0.011v277.009h-86.327v-277.009c0-304.924-247.188-552.112-552.112-552.112
			s-552.112,247.188-552.112,552.112v179.194H477.56v-179.194h-0.011c0-352.602,285.848-638.45,638.45-638.45
			S1754.448,928.833,1754.448,1281.435z"/>
		<path style="fill:#F9C126;" d="M1840.775,1281.435h-0.011v277.009h-86.327v-277.009h0.011c0-352.602-285.848-638.45-638.45-638.45
			s-638.45,285.848-638.45,638.45h0.011v179.194h-86.327v-179.194h-0.011c0-400.281,324.496-724.777,724.777-724.777
			S1840.775,881.154,1840.775,1281.435z"/>
		<path style="fill:#F49E37;" d="M1927.102,1281.435h-0.011v277.009h-86.327v-277.009h0.011
			c0-400.281-324.496-724.777-724.777-724.777s-724.777,324.496-724.777,724.777h0.011v179.194h-86.327v-179.194h-0.011
			c0-447.96,363.144-811.104,811.104-811.104S1927.102,833.475,1927.102,1281.435z"/>
		<path style="fill:#DD3344;" d="M2013.429,1281.435h-0.011v277.009h-86.327v-277.009h0.011
			c0-447.96-363.144-811.104-811.104-811.104s-811.104,363.144-811.104,811.104h0.011v179.194h-86.327v-179.194h-0.011
			c0-495.639,401.792-897.431,897.431-897.431S2013.429,785.796,2013.429,1281.435z"/>
		<g>
			<path style="fill:#DAEDEF;" d="M2064.469,1640.862c-15.228,70.766-83.463,128.383-178.363,71.041
				c-19.761,50.401-68.656,83.846-116.916,91.421c-61.722,9.693-127.313-32.719-143.794-92.981
				c-5.336,33.009-33.254,61.111-66.225,66.668c-32.971,5.55-68.556-11.857-84.404-41.296c-23.859,17.613-59.964,16.046-82.21-3.562
				c-20.816-18.362-27.474-50.737-16.367-76.025c-39.484-6.979-71.339-49.032-63.763-89.158
				c8.44-44.675,63.282-73.755,104.998-55.675c14.662-39.37,70.429-56.05,104.302-31.19c15.557-51.242,52.266-95.702,99.639-120.677
				c47.366-24.982,104.799-30.15,155.865-14.043c51.914,16.375,100.503,65.009,90.695,118.552
				c24.959-22.452,63.603-28.224,94.028-14.058c30.433,14.165,50.89,47.458,49.781,81.002
				C2048.216,1543.493,2074.307,1595.14,2064.469,1640.862z"/>
			<path style="fill:#C1DDEA;" d="M1751.167,1815.996c-26.421,0.001-53.15-8.064-76.961-23.461
				c-20.584-13.31-37.069-30.861-48.16-50.937c-13.571,23.907-37.74,41.937-65.002,46.532c-33.748,5.678-69.734-9.625-89.868-37.053
				c-27.296,13.638-63.031,9.844-86.073-10.465c-21.117-18.628-30.008-49.235-23.395-76.653
				c-17.875-6.217-34.04-18.641-45.569-35.328c-13.586-19.664-18.839-42.305-14.79-63.752c4.663-24.681,21.363-46.272,45.817-59.24
				c20.885-11.075,43.804-13.939,64.406-8.316c9.745-17.027,26.861-30.318,47.571-36.511c19.353-5.787,39.485-4.669,56.314,2.747
				c18.398-48.66,54.481-89.763,100.652-114.104c50.298-26.531,110.262-31.935,164.513-14.823
				c28.489,8.986,55.375,26.799,73.765,48.875c15.065,18.083,23.825,38.26,25.684,58.542c26.552-13.624,59.499-15.029,86.642-2.391
				c31.998,14.894,54.262,48.53,56.201,83.676c17.313,8.404,32.593,24.474,42.691,45.18c11.448,23.475,15.051,50.711,9.885,74.721
				l0,0c-9.415,43.752-36.399,79.097-72.182,94.55c-23.85,10.299-62.062,16.348-111.96-9.965
				c-10.543,21.093-26.34,39.88-46.232,54.86c-22.101,16.645-47.753,27.635-74.179,31.784
				C1764.403,1815.488,1757.792,1815.996,1751.167,1815.996z M1625.401,1699.069c5.052,0,9.524,3.378,10.869,8.299
				c14.985,54.79,75.063,93.636,131.17,84.818c22.46-3.525,45.228-13.299,64.112-27.52c20.196-15.209,35.429-34.878,44.057-56.88
				c1.212-3.094,3.729-5.495,6.877-6.562c3.144-1.067,6.605-0.691,9.45,1.028c37.293,22.534,72.714,27.664,102.434,14.829
				c29.107-12.569,51.191-41.949,59.077-78.592c4.124-19.167,1.169-41.071-8.108-60.094c-8.936-18.323-22.526-31.758-37.286-36.862
				c-4.673-1.615-7.748-6.086-7.584-11.028c0.963-29.148-16.83-58.101-43.271-70.408c-26.442-12.313-60.049-7.285-81.732,12.218
				c-3.587,3.227-8.832,3.812-13.04,1.459c-4.211-2.354-6.458-7.127-5.589-11.872c4.993-27.257-7.998-49.829-19.774-63.965
				c-15.7-18.845-38.744-34.082-63.223-41.803c-48.548-15.314-102.203-10.478-147.214,13.263
				c-45.024,23.736-79.325,65.281-94.111,113.98c-1.063,3.499-3.755,6.266-7.226,7.422c-3.469,1.153-7.285,0.556-10.233-1.609
				c-13.074-9.594-31.559-12.129-49.453-6.778c-17.892,5.35-31.954,17.617-37.614,32.814c-1.079,2.898-3.302,5.225-6.147,6.438
				c-2.845,1.212-6.063,1.203-8.902-0.028c-16.475-7.141-37.117-5.676-55.213,3.921c-18.096,9.595-30.89,25.858-34.224,43.503
				c-2.922,15.478,1.049,32.082,11.185,46.751c10.769,15.586,26.61,26.234,43.462,29.212c3.408,0.602,6.349,2.736,7.98,5.787
				c1.632,3.051,1.771,6.682,0.38,9.85c-9.226,21.007-3.422,48.106,13.504,63.037c18.412,16.23,48.307,17.524,68.055,2.947
				c2.63-1.942,5.973-2.645,9.163-1.931c3.19,0.715,5.911,2.779,7.461,5.657c13.654,25.366,44.184,40.307,72.603,35.522
				c28.411-4.788,52.37-28.907,56.967-57.349c0.847-5.237,5.231-9.176,10.529-9.459
				C1624.997,1699.075,1625.2,1699.069,1625.401,1699.069z M2064.469,1640.863h0.011H2064.469z"/>
		</g>
		<g>
			<path style="fill:#DAEDEF;" d="M886.655,1508.235c-15.228,70.766-83.463,128.383-178.363,71.041
				c-19.761,50.401-68.656,83.846-116.916,91.421c-61.722,9.693-127.313-32.719-143.794-92.981
				c-5.336,33.009-33.254,61.111-66.225,66.668c-32.971,5.55-68.556-11.857-84.404-41.296c-23.859,17.613-59.964,16.046-82.21-3.562
				c-20.816-18.362-27.475-50.737-16.367-76.025c-39.484-6.979-71.339-49.032-63.763-89.159
				c8.44-44.675,63.282-73.755,104.998-55.675c14.662-39.369,70.429-56.05,104.302-31.19
				c15.557-51.242,52.266-95.702,99.639-120.677c47.366-24.982,104.799-30.15,155.865-14.043
				c51.914,16.375,100.503,65.009,90.695,118.552c24.959-22.452,63.603-28.224,94.028-14.058
				c30.433,14.165,50.89,47.457,49.781,81.002C870.402,1410.866,896.493,1462.513,886.655,1508.235z"/>
			<path style="fill:#C1DDEA;" d="M573.353,1683.369c-26.42,0.001-53.149-8.064-76.961-23.461
				c-20.584-13.31-37.069-30.861-48.16-50.937c-13.571,23.906-37.739,41.936-65.002,46.532
				c-33.738,5.681-69.733-9.624-89.868-37.054c-27.295,13.64-63.031,9.845-86.074-10.464
				c-21.117-18.628-30.007-49.234-23.395-76.653c-17.875-6.217-34.039-18.64-45.568-35.327
				c-13.587-19.664-18.84-42.306-14.791-63.755c4.663-24.679,21.362-46.271,45.816-59.237c20.887-11.076,43.807-13.937,64.408-8.318
				c9.746-17.027,26.862-30.318,47.573-36.511c19.351-5.785,39.484-4.669,56.313,2.748c18.397-48.66,54.48-89.764,100.65-114.105
				c50.304-26.531,110.266-31.932,164.515-14.822c28.488,8.985,55.374,26.8,73.764,48.874c15.066,18.083,23.825,38.26,25.684,58.542
				c26.552-13.626,59.5-15.029,86.642-2.391c31.998,14.893,54.262,48.53,56.202,83.676c17.313,8.404,32.592,24.473,42.69,45.18
				c11.448,23.477,15.051,50.711,9.885,74.721l0,0c-9.415,43.752-36.398,79.098-72.181,94.551
				c-23.853,10.3-62.066,16.345-111.96-9.965c-10.543,21.093-26.341,39.88-46.233,54.86c-22.103,16.645-47.753,27.635-74.179,31.784
				C586.588,1682.861,579.979,1683.369,573.353,1683.369z M447.587,1566.443c5.052,0,9.524,3.378,10.869,8.299
				c14.986,54.79,75.064,93.629,131.17,84.818c22.46-3.525,45.228-13.299,64.112-27.52c20.196-15.209,35.43-34.877,44.058-56.88
				c1.212-3.094,3.729-5.495,6.877-6.562c3.147-1.068,6.606-0.69,9.45,1.028c37.294,22.534,72.716,27.661,102.434,14.829
				c29.106-12.57,51.19-41.95,59.075-78.593c4.124-19.167,1.169-41.071-8.108-60.094c-8.936-18.322-22.525-31.758-37.285-36.862
				c-4.673-1.616-7.748-6.086-7.584-11.028c0.962-29.149-16.832-58.102-43.272-70.408c-26.441-12.311-60.049-7.286-81.73,12.219
				c-3.589,3.225-8.829,3.815-13.041,1.459c-4.211-2.354-6.458-7.127-5.589-11.872c4.993-27.258-7.998-49.83-19.774-63.966
				c-15.7-18.845-38.744-34.082-63.223-41.802c-48.544-15.314-102.203-10.479-147.215,13.262
				c-45.024,23.738-79.326,65.282-94.11,113.981c-1.062,3.499-3.757,6.266-7.226,7.422c-3.472,1.153-7.285,0.556-10.233-1.609
				c-13.073-9.594-31.56-12.129-49.452-6.779c-17.893,5.351-31.954,17.617-37.614,32.814c-1.079,2.898-3.302,5.225-6.147,6.438
				c-2.845,1.212-6.064,1.2-8.901-0.027c-16.478-7.141-37.118-5.675-55.215,3.922c-18.096,9.595-30.889,25.858-34.222,43.502
				c-2.922,15.479,1.05,32.083,11.186,46.752c10.769,15.586,26.61,26.234,43.462,29.212c3.407,0.602,6.348,2.736,7.98,5.787
				c1.631,3.051,1.771,6.682,0.38,9.85c-9.227,21.007-3.422,48.106,13.503,63.037c18.414,16.23,48.308,17.524,68.055,2.946
				c2.63-1.942,5.972-2.647,9.163-1.931c3.19,0.715,5.912,2.779,7.461,5.657c13.655,25.367,44.19,40.307,72.604,35.523
				c28.411-4.789,52.37-28.908,56.966-57.349c0.847-5.237,5.231-9.176,10.529-9.459
				C447.183,1566.448,447.385,1566.443,447.587,1566.443z M886.654,1508.235h0.011H886.654z"/>
		</g>
	</g>
</g>
</svg>
